<svg xmlns="http://www.w3.org/2000/svg" id="Layer_1" data-name="Layer 1" viewBox="0 0 1086.67 857.18"><defs><style>.cls-1{fill:#fff}</style></defs><path d="M806,712.67c.6,1.12.61,2.63,1.22,3.58,9.39,14.64,25.11,8.53,37.29.78,15.74-10.02,29.06-26.43,38.89-42.11,1.77-2.83,4.9-11.95,8.07-11.97,4.7-.02,1.76,8.29.69,10.72-13.46,30.41-51.88,67.4-87.58,63.22-11.31-1.32-21.36-9.22-25.09-19.91l-3-14.98c-11.54,13.3-23.71,26.02-39.21,34.8-19.03,10.78-42.2,16.06-58.82-1.79l-7.97-13c-11.22,14.55-31.84,38.1-52.41,28.38-6.25-2.95-8.35-12.43-8.15-18.92.18-5.74,2.49-11.71,2.56-17.46-13.14,16.21-36.94,49.81-60.77,45.76-8.41-1.43-13.63-8.13-14.63-16.37-2.33-19.3,9.04-36.35,15.2-53.59.29-.83,1.53-2.32.2-2.8-9.35,6.22-19.17,11.76-30,15-10.59,25.07-28.6,56.49-55.52,66.48-21,7.79-44.23-4.23-46.88-27.09-4.86-41.93,37.23-100.01,81.96-99.06,24.85.53,29,28.66,21.94,47.66,17.3-.85,35.71-16.62,42.4-32.09,1.78-4.11,3.64-14.55,6.64-17.36s17.32-6.87,21.26-6.19c9.39,1.63,4.79,8.71,2.47,14.92-9.53,25.51-26.59,53.97-33.26,79.74-4.06,15.69,2.56,20.99,15.5,10.5,23.73-19.22,44.98-58.98,57.16-86.84,2.09-4.77,4.68-15.86,6.76-19,1.94-2.94,17.78-6.28,21.58-6.14,4.6.17,6.13,1.03,5.45,5.88-1.09,7.78-12.79,28.73-16.45,37.59-5.21,12.63-21.3,48.68-19.46,60.43.83,5.3,3.93,6.35,8.66,4.77,17.02-5.69,46.17-54.29,55.45-70.54,7.85-13.75,18.98-42.52,28.78-52.22,3.9-3.86,13.12-8.79,16.94-2.85,5.13,7.98-9.5,14.82-8.96,26.92.92,20.44,22.85,36.93,19.95,64.86-.6,5.76-2.97,10.34-4.87,15.62.83.97,16.65-14.93,18.02-16.47,2.39-2.69,8.4-9.38,10.01-11.99,1.93-3.13,2.13-8.77,3.5-12.5,10.04-27.29,35-55.73,62.22-66.78s45.63,1.9,30.96,30.96c-4.59,9.09-10.6,15.12-17.37,22.13-10.99,11.39-21.5,19.36-36.82,24.68-3.34,1.16-13.87,2.57-15.03,4.96-1.9,3.91-.55,11.25-.45,15.52M867.73,619.26c-.53-.65-4.25-2.05-5.3-2.2-12.88-1.83-25.94,14.56-32.86,24.02-9.32,12.75-16.39,26.98-21.58,41.91,21.61-2.35,42.9-21.69,53.81-39.68,3.28-5.41,10.6-18.26,5.93-24.05ZM716,647c-.72,3-2.37,5.96-3.84,8.67-7.77,14.37-20.37,31.37-26.55,45.44-2.8,6.37-.1,18.09,3.94,23.83,15.7,22.28,37.98,1.84,40.33-18.54,1.77-15.3-5.42-42.86-11.85-56.94-.45-.99-.65-2.34-2.04-2.45ZM513.98,666c.33-19.66-20.16-10.3-29.74-3.31-16.85,12.28-40.98,59.19-39.24,79.81,1.04,12.28,7.72,19.12,20.21,15.22,18.1-5.64,33.72-38.53,39.77-55.23-18.95-4.67-10.67-42.51,9-36.49Z" class="cls-1"/><path d="M257.36,607.03c-2.95.72-8.68.45-12.58,1.26-34.04,7.06-59.21,44.64-54.54,78.95,2.33,17.08,16.51,30.65,33.73,21.76,1.78,9.37-13.05,13.84-20.13,13.43-23.35-1.37-34.47-29.45-32.73-49.8,2.66-31.19,24.92-63.08,53.89-75.11,38.33-15.91,80.35.31,117.04-7.96,5.63-1.27,21.22-10.37,24.98-8.08,1.27.77.96,1.43.55,2.6-1.26,3.66-12.09,11.58-15.62,15.4-6.61,7.16-12.79,17.95-17.36,26.64-9.54,18.17-16.55,37.64-23.62,56.87l62.43-1.94c6.23-17.81,14.05-35.32,23.4-51.73,10.63-18.67,35.38-55.73,56.63-61.37,6.47-1.72,21.62-3.28,21.44,6.57-.15,8.39-10.05,3.71-15.34,4.54-15.19,2.39-33.92,42.57-40.05,55.94-8.66,18.91-16.64,39.18-23.95,58.66-4.25,11.33-9.58,24.9-13.06,37.33-3.84,13.74-14.86,54.97,13.47,44.47,5.23-1.94,7.57-7.09,13.02-7.47.86,7.92-9.41,15.69-16.01,18.48-10.39,4.38-26.77,6.38-34.4-3.57-17.11-22.32,2.72-61.51,8.91-84.92.48-1.82,2.5-5.22,0-5.02-8.75.71-17.58,2.36-26.34,2.79-11.61.57-23.4-.05-35.05.34-11.66,33.02-26.15,70.01-53.89,92.88-20.93,17.25-65.59,30.53-85.19,5.49-6.46-8.25-9.59-28.46,3.54-30.43,15.13-2.27,3.25,14.36,7.98,21.91,7.46,11.9,23.49,11.46,35.15,7.24,32.6-11.83,52.45-63.96,64.29-93.7l-2.45-1.53c-8.32,1.78-17.17.82-25.21,3.85-4.42,1.66-9.55,7.76-13.18,1.56-2.79-4.76,2.02-10.02,5.93-12.82,11.03-7.88,27.96-5.98,40.78-7.72,11.3-28.15,23.39-58.5,46.15-79.34-12.45.42-24.99,2.06-37.45,2.53-9.27.35-18.67-.29-27.9.12" class="cls-1"/><path d="M440.4,392.4c10.81-13.4,13.89-41.96-4.38-50.94-12.79-6.28-23.27-3.49-36.04.09-1.07.3-2.53-.52-2.83-.32-.34.23-.48,1.77-1.21,2.18-44,25.19-72.42,77.13-81.67,126.38-6.64,35.35,1.84,77.72,46.15,75.08,29.57-1.77,53.37-26.03,68.58-49.34,1.79-2.74,7.5-14.28,8.97-15.07,1.07-.58,1.96-.7,3.01.01,4.38,2.26-2.1,13.94-3.82,17.21-22.55,42.82-76.86,80.09-124.7,53.35-65.86-36.81-22.36-138.09,16.01-180.04,24.44-26.72,69.2-57.94,107.21-44.17,38.58,13.97,28.71,64.76-.37,82.01-4.95,2.94-17.88,7.9-18.42-1.32-.42-7.13,6.88-4.76,11.82-6.28,4.58-1.41,8.78-5.22,11.69-8.82Z" class="cls-1"/><path d="M740.59,500.62c-56.69,57.1-142.95,24.8-120.1-59.62,12.32-45.52,61.09-110.15,113.88-104.88,18.46,1.84,33.3,13.63,40.79,30.21,20.08,44.48-2.09,101.58-34.57,134.3ZM714.54,501.59c26.63-26.99,50.77-94.67,43.18-131.84-4.41-21.61-24.57-27.71-43.73-20.24-38.36,14.96-66.94,91.81-69.01,129.99-2.58,47.61,41.6,50.42,69.55,22.09Z" class="cls-1"/><path d="M621.84,363.14c.47.32,1.25,3.48,1.17,4.33-.5,4.92-20.45,10.79-24.03,16.02l-51.89,57.16c1.4,8.2,4.24,16.03,6.88,23.87,4.36,12.95,10.15,29.97,15.85,42.15,1.24,2.66,4.36,8.86,6.62,10.37,3.92,2.62,10.05-.62,9.65,6.46-.07,1.25-.14,2.07-1.07,3.01-1.33,1.34-10.74,2.22-13.53,2.47-14.21,1.27-28.81.64-43.05,2.51-3.28.08-4.45-4.8-2.54-7.1,3.58-4.29,14.89.06,15.18-10.91.16-6.19-5.49-23.72-7.59-30.5-1.98-6.4-4.25-12.9-6.99-19l-32.47,35.76c-1.91,4.35-13.97,16.4-12.92,20.54,1.28,5.04,13.25,2.17,12.72,8.98-.23,2.97-2.76,3.49-5.32,3.72-13.4,1.19-27.74,2.56-41.06,3.04-4.52.16-7.74-2.41-5.25-6.85.85-1.51,18.27-6.66,20.32-11.17,20.73-21.3,40.21-43.83,60.05-65.97-6.77-15.39-11.43-31.77-17.82-47.31-2.08-5.06-8.37-20.03-12.46-22.79-5.08-3.44-17.42,2.52-12.36-10.52l61.13-3c5.19,10.19-7.29,6.97-11.06,11.07-4.61,5.02.94,15.55,1.7,21.28l11.28,30.2c.05-1.14.72-2.2,1.47-3.03,9.61-10.63,19.93-20.89,29.06-31.95,3.58-4.34,13.15-13.91,8.58-19.61-2.56-3.19-14.2.88-8.96-10.27l48.72-3Z" class="cls-1"/><path d="M756.98,821.99c2.19-3.46-.63-1.17-1.78-2.15-.36-.3-1.45-6.15-3.56-8.5-6.33-7.06-27.36-9.18-36.71-9.88-43.26-3.26-94.75,8.35-137.16,17.83-52.26,11.68-105.35,28.75-158.45,35.55-24.85,3.18-91.22,7.72-102.15-21.62-2.21-5.93,1.15-13.48,7.17-9.3.69.48,2.34,8.23,7.16,12.06,22.14,17.59,85.72,5.09,112.51-.44,48.67-10.03,96.7-24.18,145.56-33.43,38.5-7.29,77.43-14.47,116.9-12.1,13.62.82,50.3,6.01,54.07,21.92.86,3.61,1.56,9.75-3.57,10.06Z" class="cls-1"/></svg>